<?xml version="1.0" encoding="utf-8"?>
<!-- Generator: Adobe Illustrator 15.1.0, SVG Export Plug-In . SVG Version: 6.00 Build 0)  -->
<!DOCTYPE svg PUBLIC "-//W3C//DTD SVG 1.1//EN" "http://www.w3.org/Graphics/SVG/1.1/DTD/svg11.dtd">
<svg version="1.1" id="Layer_1" xmlns="http://www.w3.org/2000/svg" xmlns:xlink="http://www.w3.org/1999/xlink" x="0px" y="0px"
	 width="211px" height="80px" viewBox="0 0 211 80" enable-background="new 0 0 211 80" xml:space="preserve">
<path fill="#CCCCCC" d="M118.258,30.574c0-3.116-1.559-4.673-4.674-4.673l-87.861,0.001c-3.115,0-4.674,1.558-4.674,4.674
	l0.001,34.115c0.001,3.117,1.558,4.674,4.674,4.674l87.861-0.001c3.115,0,4.673-1.558,4.673-4.673V30.574 M65.495,68.336
	l1.542-3.691h-1.496l4.066-9.769l4.112,9.767h-1.401l1.542,3.739h-8.365l0.046-0.046H65.495z"/>
<g>
	<text transform="matrix(1 -1.632493e-05 1.632493e-05 1 63.7871 54.6914)" font-family="'Arial-BoldMT'" font-size="21.4979">2</text>
</g>
<path fill="#FFFFFF" d="M129.475,22.162c0-3.116-1.559-4.673-4.675-4.673L13.572,17.49c-3.116,0-4.674,1.558-4.674,4.674v18.133
	c-2.149,0-4.004,0.779-5.561,2.337C1.779,44.191,1,46.061,1,48.242c0,2.181,0.779,4.05,2.338,5.607
	c1.558,1.559,3.411,2.338,5.561,2.338L8.9,73.572c0,3.115,1.558,4.674,4.673,4.674l111.229-0.002c3.116,0,4.675-1.559,4.675-4.674
	V56.186c2.211,0,4.097-0.779,5.653-2.338c1.558-1.558,2.337-3.427,2.337-5.607c0-2.182-0.779-4.051-2.337-5.608
	s-3.442-2.337-5.655-2.337V22.162 M127.09,25.199c0-3.116-1.558-4.673-4.673-4.673l-81.365,0.001l81.365-0.001
	C125.532,20.526,127.09,22.083,127.09,25.199l0.001,12.945L127.09,25.199 M113.584,25.9c3.115,0,4.674,1.558,4.674,4.673v34.116
	c0,3.115-1.558,4.674-4.673,4.674l-87.861,0.001c-3.116,0-4.673-1.558-4.674-4.673l-0.001-34.116c0-3.116,1.559-4.674,4.674-4.674
	L113.584,25.9 M133.213,48.286c0,0.841-0.296,1.558-0.888,2.149c-0.593,0.592-1.31,0.889-2.15,0.889s-1.573-0.297-2.196-0.889
	c-0.561-0.592-0.84-1.309-0.84-2.149s0.279-1.558,0.84-2.15c0.623-0.592,1.355-0.888,2.196-0.888c0.843,0,1.558,0.296,2.15,0.888
	C132.917,46.729,133.213,47.445,133.213,48.286 M9.506,43.708c1.277,0,2.368,0.452,3.271,1.354c0.904,0.903,1.355,1.994,1.355,3.271
	s-0.451,2.368-1.355,3.271c-0.903,0.902-1.994,1.354-3.271,1.354c-1.277,0-2.398-0.452-3.364-1.354
	c-0.841-0.904-1.263-1.994-1.263-3.271s0.422-2.368,1.263-3.271C7.107,44.16,8.229,43.708,9.506,43.708 M12.685,70.207
	c0,3.116,1.558,4.673,4.674,4.673l81.364-0.001L17.358,74.88C14.242,74.88,12.685,73.322,12.685,70.207V57.261V70.207
	 M12.777,45.062c-0.903-0.903-1.994-1.354-3.271-1.354c-1.277,0-2.398,0.452-3.364,1.354c-0.841,0.903-1.263,1.994-1.263,3.271
	s0.422,2.368,1.263,3.271c0.966,0.902,2.087,1.354,3.364,1.354c1.277,0,2.368-0.452,3.271-1.354
	c0.904-0.904,1.355-1.994,1.355-3.271S13.682,45.967,12.777,45.062 M7.403,50.438c-0.562-0.592-0.841-1.309-0.841-2.149
	s0.279-1.558,0.841-2.149C8.026,45.546,8.758,45.25,9.6,45.25c0.842,0,1.559,0.296,2.15,0.889c0.592,0.592,0.888,1.309,0.888,2.149
	s-0.296,1.558-0.888,2.149c-0.592,0.593-1.309,0.889-2.15,0.889C8.759,51.326,8.026,51.03,7.403,50.438 M6.562,48.288
	c0,0.841,0.279,1.558,0.841,2.149c0.623,0.593,1.355,0.889,2.196,0.889c0.842,0,1.559-0.296,2.15-0.889
	c0.592-0.592,0.888-1.309,0.888-2.149s-0.296-1.558-0.888-2.149c-0.592-0.593-1.309-0.889-2.15-0.889
	c-0.841,0-1.573,0.296-2.196,0.889C6.842,46.73,6.562,47.447,6.562,48.288 M8.898,50.251l1.869-4.206L8.898,50.251 M132.325,50.436
	c0.592-0.592,0.888-1.309,0.888-2.149s-0.296-1.558-0.888-2.15c-0.593-0.592-1.31-0.888-2.15-0.888s-1.573,0.296-2.196,0.888
	c-0.561,0.593-0.84,1.31-0.84,2.15s0.279,1.558,0.84,2.149c0.623,0.592,1.355,0.889,2.196,0.889
	C131.018,51.324,131.732,51.027,132.325,50.436 M128.398,46.744l3.6,2.896L128.398,46.744 M65.541,64.645h1.496l2.617-6.31
	l2.664,6.31h1.401l-4.112-9.768L65.541,64.645 M66.149,66.747l-0.281,0.701l-0.327,0.888l-0.046,0.046h8.365l-0.701-1.636
	L66.149,66.747L66.149,66.747z"/>
<path d="M67.037,64.645l-0.888,2.104h7.01l-0.841-2.104l-2.664-6.309L67.037,64.645 M65.541,68.336l0.327-0.888l-0.373,0.888H65.541
	z"/>
<path id="help_0_Layer3_0_2_STROKES_1_" fill="none" stroke="#000000" stroke-width="2" stroke-linecap="square" stroke-miterlimit="3" d="
	M124.8,17.488L13.572,17.49c-3.116,0-4.674,1.558-4.674,4.674v18.133c-2.149,0-4.004,0.779-5.561,2.337
	C1.779,44.191,1,46.061,1,48.242c0,2.181,0.779,4.05,2.338,5.607c1.558,1.559,3.411,2.338,5.561,2.338L8.9,73.572
	c0,3.115,1.558,4.674,4.673,4.674l111.229-0.002c3.116,0,4.675-1.559,4.675-4.674V56.186c2.211,0,4.097-0.779,5.653-2.338
	c1.558-1.558,2.337-3.427,2.337-5.607c0-2.182-0.779-4.051-2.337-5.608s-3.442-2.337-5.655-2.337V22.162
	C129.475,19.046,127.916,17.488,124.8,17.488z M113.584,25.9l-87.861,0.001c-3.115,0-4.674,1.558-4.674,4.674l0.001,34.116
	c0.001,3.115,1.558,4.673,4.674,4.673l87.861-0.001c3.115,0,4.673-1.559,4.673-4.674V30.574
	C118.258,27.458,116.699,25.9,113.584,25.9z"/>
<path id="help_0_Layer3_0_3_STROKES_1_" fill="none" stroke="#000000" stroke-linecap="round" stroke-linejoin="round" d="
	M132.325,50.436c-0.593,0.592-1.31,0.889-2.15,0.889s-1.573-0.297-2.196-0.889c-0.561-0.592-0.84-1.309-0.84-2.149
	s0.279-1.558,0.84-2.15c0.623-0.592,1.355-0.888,2.196-0.888c0.843,0,1.558,0.296,2.15,0.888c0.592,0.593,0.888,1.31,0.888,2.15
	S132.917,49.844,132.325,50.436z M12.777,45.062c0.904,0.903,1.355,1.994,1.355,3.271s-0.451,2.368-1.355,3.271
	c-0.903,0.902-1.994,1.354-3.271,1.354c-1.277,0-2.398-0.452-3.364-1.354c-0.841-0.904-1.263-1.994-1.263-3.271
	s0.422-2.368,1.263-3.271c0.966-0.902,2.087-1.354,3.364-1.354C10.783,43.708,11.874,44.16,12.777,45.062z M6.562,48.288
	c0-0.841,0.279-1.558,0.841-2.149C8.026,45.546,8.758,45.25,9.6,45.25c0.842,0,1.559,0.296,2.15,0.889
	c0.592,0.592,0.888,1.309,0.888,2.149s-0.296,1.558-0.888,2.149c-0.592,0.593-1.309,0.889-2.15,0.889
	c-0.841,0-1.573-0.296-2.196-0.889C6.842,49.846,6.562,49.129,6.562,48.288z"/>
<path id="help_0_Layer3_0_4_STROKES_1_" fill="none" stroke="#000000" stroke-width="2" stroke-linecap="round" stroke-linejoin="round" d="
	M128.398,46.744l3.6,2.896 M8.898,50.251l1.869-4.206"/>
<path id="help_0_Layer3_0_5_STROKES_1_" fill="none" stroke="#000000" stroke-width="2" stroke-linecap="round" stroke-linejoin="round" stroke-opacity="0.251" d="
	M108.678,52.025l-0.001-12.338 M99.144,52.025V39.688 M89.983,52.025V39.688 M37.828,52.025l-0.001-12.337 M29.229,52.025V39.688
	 M46.987,52.025V39.688"/>
<path id="help_0_Layer3_0_6_STROKES_1_" fill="none" stroke="#000000" stroke-linecap="square" stroke-miterlimit="3" d="
	M127.091,38.145L127.09,25.2c0-3.116-1.558-4.673-4.673-4.673l-81.365,0.001 M12.685,57.261v12.945c0,3.116,1.558,4.673,4.674,4.673
	l81.364-0.001"/>
<path id="help_0_Layer2_0_1_STROKES_1_" fill="none" stroke="#FFFFFF" stroke-width="6" stroke-linecap="round" stroke-linejoin="round" d="
	M76.43,31.977c0.062-1.713,1.947-4.128,5.655-7.244c3.957-3.365,8.957-6.589,15.002-9.674C112.883,7.02,129.209,3,146.064,3
	c22.338,0,39.039,6.464,50.1,19.394c3.926,4.549,6.886,9.658,8.88,15.329c1.495,4.237,2.243,7.929,2.243,11.076 M86.104,55.998
	c-4.175,2.648-9.237,3.973-15.188,3.973s-11.029-1.324-15.236-3.972c-4.174-2.647-6.262-5.842-6.262-9.581
	c0-3.396,1.744-6.356,5.234-8.879c0.311-0.25,0.654-0.483,1.027-0.701c4.206-2.648,9.285-3.973,15.235-3.973
	c5.951,0,11.014,1.324,15.189,3.972c4.206,2.648,6.309,5.843,6.309,9.581c0,1.713-0.436,3.302-1.308,4.768
	C90.077,52.96,88.41,54.564,86.104,55.998z"/>
<path d="M50.96,50.297c0.114-0.217,0.114-0.451,0-0.701c-0.405-0.996-0.607-2.055-0.607-3.178c0-0.093,0-0.188,0-0.279
	c-0.003-0.257-0.096-0.475-0.28-0.654c-0.181-0.186-0.398-0.278-0.654-0.28c-0.256,0.002-0.475,0.096-0.654,0.28
	c-0.186,0.18-0.278,0.397-0.281,0.654c0,0.092,0,0.187,0,0.279c0,1.369,0.25,2.663,0.748,3.879c0.118,0.258,0.289,0.428,0.515,0.514
	c0.249,0.115,0.482,0.115,0.7,0C50.703,50.725,50.874,50.553,50.96,50.297 M52.361,38.566c-0.24,0.003-0.458,0.097-0.654,0.281
	c-0.992,1.047-1.756,2.137-2.289,3.271c-0.115,0.253-0.131,0.503-0.047,0.748c0.09,0.237,0.246,0.409,0.467,0.514
	c0.254,0.115,0.502,0.13,0.748,0.046c0.237-0.091,0.408-0.263,0.514-0.514c0.463-0.954,1.117-1.873,1.963-2.757
	c0.193-0.19,0.287-0.424,0.281-0.701c-0.003-0.241-0.097-0.459-0.281-0.654C52.873,38.638,52.639,38.561,52.361,38.566
	 M69.42,59.316c-0.167-0.197-0.385-0.307-0.654-0.327c-1.229-0.087-2.429-0.243-3.599-0.468c-0.238-0.033-0.472,0.013-0.7,0.141
	c-0.192,0.166-0.317,0.368-0.374,0.607c-0.035,0.27,0.012,0.504,0.14,0.701c0.166,0.223,0.368,0.348,0.607,0.375
	c1.229,0.242,2.491,0.414,3.786,0.514c0.272,0.016,0.506-0.062,0.701-0.234c0.197-0.167,0.307-0.385,0.327-0.654
	C69.67,59.73,69.592,59.512,69.42,59.316 M71.757,60.578c0.191,0.193,0.409,0.287,0.654,0.281c1.334-0.029,2.611-0.139,3.832-0.328
	c0.253-0.04,0.456-0.165,0.608-0.374c0.15-0.212,0.197-0.445,0.14-0.701c-0.017-0.253-0.126-0.456-0.327-0.606
	c-0.211-0.16-0.444-0.222-0.701-0.188c-1.146,0.184-2.346,0.293-3.599,0.327c-0.241,0.003-0.46,0.097-0.654,0.28
	c-0.162,0.19-0.24,0.408-0.233,0.653C71.479,60.197,71.573,60.415,71.757,60.578 M58.438,56.419
	c-0.235-0.114-0.484-0.129-0.748-0.046c-0.227,0.081-0.398,0.236-0.514,0.467c-0.114,0.235-0.13,0.469-0.047,0.701
	c0.082,0.258,0.237,0.445,0.467,0.561c1.111,0.551,2.28,1.002,3.506,1.355c0.26,0.075,0.493,0.043,0.701-0.094
	c0.24-0.11,0.396-0.297,0.467-0.562c0.075-0.229,0.044-0.462-0.093-0.7c-0.11-0.209-0.298-0.351-0.562-0.422
	C60.505,57.35,59.445,56.93,58.438,56.419 M55.587,55.952c0.159-0.197,0.206-0.431,0.14-0.701c-0.025-0.239-0.15-0.442-0.373-0.608
	c-0.98-0.688-1.821-1.436-2.523-2.242c-0.177-0.174-0.395-0.269-0.654-0.28c-0.258-0.017-0.492,0.062-0.701,0.233
	c-0.176,0.177-0.269,0.395-0.281,0.654c-0.016,0.258,0.062,0.475,0.234,0.654c0.793,0.906,1.742,1.748,2.851,2.523
	c0.229,0.158,0.462,0.205,0.701,0.14C55.25,56.3,55.452,56.176,55.587,55.952 M59.325,34.22c-0.227-0.083-0.46-0.083-0.701,0
	c-1.193,0.535-2.347,1.142-3.458,1.823c-0.204,0.138-0.344,0.325-0.421,0.561c-0.043,0.265,0.003,0.498,0.14,0.701
	c0.139,0.236,0.325,0.376,0.562,0.421c0.264,0.074,0.497,0.043,0.701-0.094c1.037-0.628,2.112-1.189,3.225-1.683
	c0.233-0.088,0.39-0.259,0.467-0.514c0.115-0.227,0.115-0.46,0-0.701C59.752,34.5,59.58,34.329,59.325,34.22 M86.479,56.512
	c0.251,0.066,0.485,0.02,0.701-0.14c1.185-0.769,2.197-1.595,3.037-2.478c0.193-0.19,0.287-0.425,0.28-0.701
	c-0.002-0.24-0.096-0.459-0.28-0.653c-0.19-0.162-0.424-0.24-0.701-0.233c-0.241,0.004-0.459,0.098-0.654,0.28
	c-0.748,0.799-1.651,1.547-2.71,2.243c-0.214,0.156-0.354,0.359-0.421,0.607c-0.035,0.252,0.012,0.485,0.141,0.701
	C86.026,56.354,86.229,56.479,86.479,56.512 M91.759,45.764c-0.185,0.18-0.277,0.397-0.28,0.653
	c-0.003,1.177-0.252,2.299-0.747,3.365c-0.084,0.231-0.084,0.465,0,0.7c0.107,0.238,0.278,0.41,0.514,0.515
	c0.231,0.106,0.465,0.106,0.701,0c0.246-0.077,0.417-0.233,0.514-0.467c0.596-1.304,0.892-2.673,0.889-4.113
	c-0.003-0.256-0.096-0.474-0.281-0.653c-0.18-0.186-0.397-0.279-0.654-0.281C92.157,45.484,91.939,45.578,91.759,45.764
	 M83.674,56.605c-0.222-0.084-0.455-0.067-0.7,0.047c-1.062,0.51-2.184,0.931-3.365,1.262c-0.232,0.07-0.419,0.211-0.561,0.421
	c-0.106,0.238-0.122,0.472-0.047,0.701c0.07,0.263,0.211,0.45,0.421,0.562c0.238,0.145,0.473,0.176,0.7,0.094
	c1.28-0.348,2.495-0.799,3.646-1.355c0.252-0.113,0.424-0.301,0.515-0.561c0.083-0.223,0.067-0.457-0.047-0.701
	C84.121,56.852,83.935,56.695,83.674,56.605 M84.982,35.108c-0.218-0.106-0.451-0.122-0.701-0.047
	c-0.241,0.072-0.428,0.212-0.561,0.42c-0.106,0.249-0.122,0.498-0.047,0.748c0.072,0.241,0.213,0.413,0.421,0.514
	c0.529,0.289,1.027,0.585,1.495,0.888c0.481,0.289,0.917,0.585,1.309,0.888c0.224,0.181,0.458,0.258,0.701,0.233
	c0.266-0.031,0.469-0.155,0.607-0.374c0.182-0.192,0.259-0.426,0.234-0.701c-0.031-0.235-0.156-0.437-0.374-0.608
	c-0.45-0.352-0.949-0.694-1.496-1.028C86.073,35.723,85.544,35.411,84.982,35.108 M90.264,39.36
	c-0.254-0.024-0.487,0.038-0.701,0.187c-0.188,0.18-0.297,0.398-0.327,0.654c-0.024,0.254,0.038,0.472,0.188,0.654
	c0.779,0.949,1.34,1.945,1.682,2.99c0.081,0.25,0.236,0.438,0.468,0.562c0.227,0.114,0.46,0.13,0.701,0.047
	c0.25-0.081,0.438-0.236,0.561-0.468c0.114-0.226,0.13-0.459,0.047-0.7c-0.406-1.261-1.076-2.46-2.01-3.599
	C90.722,39.5,90.52,39.39,90.264,39.36 M78.72,27.911c-0.204-0.149-0.438-0.211-0.701-0.187c-0.255,0.022-0.473,0.131-0.654,0.327
	c-1.249,1.527-1.872,2.82-1.869,3.879c-0.007,0.269,0.071,0.486,0.234,0.654c0.193,0.207,0.411,0.316,0.653,0.327
	c0.145,0.004,0.27-0.027,0.374-0.093c-0.105,0.141-0.184,0.297-0.233,0.467c-0.035,0.252,0.012,0.486,0.141,0.701
	c0.155,0.214,0.358,0.339,0.607,0.374c1.236,0.259,2.421,0.586,3.552,0.981c0.263,0.083,0.512,0.068,0.748-0.046
	c0.229-0.115,0.386-0.302,0.467-0.561c0.083-0.231,0.068-0.465-0.047-0.701c-0.114-0.229-0.301-0.385-0.561-0.467
	c-1.206-0.416-2.468-0.758-3.785-1.028c-0.192-0.023-0.38-0.007-0.562,0.046c0.177-0.149,0.271-0.352,0.281-0.607
	c0.064-0.716,0.548-1.62,1.448-2.71c0.18-0.205,0.258-0.439,0.233-0.701C79.025,28.31,78.917,28.091,78.72,27.911 M81.478,23.985
	c-0.469,0.405-0.921,0.794-1.355,1.168c-0.175,0.185-0.269,0.403-0.28,0.654c-0.008,0.259,0.07,0.478,0.233,0.654
	c0.186,0.207,0.403,0.315,0.654,0.327c0.259,0.007,0.477-0.086,0.654-0.28c0.406-0.343,0.827-0.701,1.262-1.075
	c0.507-0.382,1.021-0.771,1.542-1.168c0.21-0.162,0.335-0.379,0.374-0.654c0.034-0.235-0.028-0.453-0.187-0.654
	c-0.162-0.21-0.38-0.334-0.654-0.374c-0.234-0.033-0.453,0.029-0.654,0.187C82.528,23.183,81.999,23.588,81.478,23.985
	 M86.524,22.115c0.271,0.058,0.504,0.011,0.701-0.14c0.998-0.701,2.042-1.386,3.131-2.056c0.235-0.138,0.375-0.34,0.421-0.607
	c0.074-0.233,0.043-0.467-0.094-0.701c-0.137-0.205-0.34-0.345-0.607-0.421c-0.232-0.043-0.466,0.004-0.701,0.141
	c-1.122,0.701-2.197,1.417-3.225,2.149c-0.192,0.144-0.316,0.331-0.374,0.561c-0.026,0.271,0.036,0.505,0.188,0.701
	C86.107,21.966,86.294,22.09,86.524,22.115 M69.326,32.21c-0.185,0.18-0.278,0.398-0.28,0.654c0.002,0.256,0.096,0.474,0.28,0.654
	c0.181,0.185,0.398,0.278,0.654,0.28c0.312,0,0.623,0,0.935,0c0.942,0,1.861,0.032,2.758,0.093c0.272,0.016,0.506-0.062,0.701-0.233
	c0.197-0.167,0.307-0.385,0.327-0.654c0.016-0.241-0.062-0.459-0.234-0.654c-0.166-0.197-0.385-0.307-0.654-0.327
	c-0.941-0.063-1.908-0.094-2.897-0.093c-0.312,0-0.623,0-0.935,0C69.725,31.932,69.507,32.025,69.326,32.21 M62.316,32.958
	c-0.246,0.085-0.433,0.241-0.561,0.468c-0.138,0.22-0.185,0.454-0.141,0.701c0.085,0.246,0.24,0.433,0.468,0.561
	c0.22,0.137,0.453,0.168,0.7,0.093c1.186-0.287,2.416-0.521,3.692-0.701c0.252-0.04,0.455-0.165,0.607-0.374
	c0.158-0.21,0.221-0.443,0.188-0.701c-0.04-0.252-0.165-0.455-0.374-0.607c-0.21-0.158-0.443-0.22-0.701-0.187
	C64.854,32.403,63.562,32.653,62.316,32.958 M203.268,35.012c-0.082,0.241-0.082,0.475,0,0.701c0.319,0.787,0.615,1.565,0.89,2.336
	l0,0c0.161,0.39,0.303,0.779,0.42,1.168c0.071,0.242,0.213,0.413,0.421,0.514c0.248,0.138,0.497,0.169,0.748,0.094
	c0.24-0.072,0.412-0.228,0.514-0.468c0.139-0.217,0.17-0.451,0.094-0.701c-0.131-0.421-0.287-0.841-0.467-1.262h0.047
	c-0.289-0.787-0.601-1.581-0.936-2.383c-0.078-0.225-0.232-0.396-0.469-0.514c-0.239-0.083-0.489-0.083-0.746,0
	C203.559,34.607,203.387,34.778,203.268,35.012 M207.895,46.79c0.158-0.201,0.222-0.435,0.188-0.701
	c-0.162-1.198-0.411-2.491-0.748-3.879c-0.045-0.235-0.185-0.423-0.421-0.562c-0.202-0.137-0.436-0.183-0.701-0.14
	c-0.234,0.076-0.423,0.216-0.561,0.421c-0.137,0.234-0.185,0.467-0.141,0.701c0.316,1.322,0.551,2.553,0.7,3.692
	c0.039,0.274,0.164,0.491,0.374,0.653c0.201,0.158,0.419,0.221,0.654,0.188C207.516,47.124,207.732,47,207.895,46.79 M147.373,2.346
	c-0.182-0.185-0.398-0.278-0.654-0.28c-0.219,0-0.437,0-0.654,0c-1.035,0-2.08,0.016-3.131,0.047
	c-0.242,0.011-0.461,0.104-0.654,0.28c-0.162,0.199-0.24,0.417-0.233,0.654c0.011,0.273,0.104,0.492,0.28,0.654
	c0.199,0.193,0.417,0.287,0.654,0.28c1.035-0.031,2.063-0.046,3.084-0.047c0.219,0,0.437,0,0.654,0
	c0.256-0.002,0.475-0.096,0.654-0.28c0.186-0.18,0.277-0.398,0.279-0.654C147.65,2.744,147.559,2.526,147.373,2.346 M140.176,3.094
	c-0.021-0.239-0.13-0.441-0.326-0.608c-0.195-0.171-0.43-0.25-0.701-0.233c-1.271,0.093-2.531,0.203-3.785,0.327
	c-0.258,0.03-0.475,0.139-0.654,0.327c-0.148,0.213-0.212,0.447-0.188,0.701c0.029,0.256,0.139,0.458,0.326,0.607
	c0.213,0.18,0.447,0.258,0.701,0.234c1.238-0.125,2.485-0.234,3.739-0.328c0.269-0.021,0.487-0.13,0.653-0.327
	C140.113,3.599,140.191,3.365,140.176,3.094 M154.009,4.262c0.271,0.016,0.507-0.062,0.701-0.233
	c0.197-0.167,0.308-0.385,0.327-0.654c0.018-0.241-0.062-0.459-0.232-0.654c-0.168-0.197-0.386-0.306-0.654-0.327
	c-1.207-0.094-2.438-0.172-3.692-0.234c-0.258-0.015-0.492,0.063-0.701,0.234c-0.175,0.176-0.269,0.395-0.28,0.654
	c-0.015,0.258,0.062,0.477,0.233,0.654c0.177,0.206,0.396,0.315,0.653,0.327C151.604,4.09,152.816,4.168,154.009,4.262
	 M157.889,2.766c-0.244-0.033-0.478,0.029-0.701,0.187c-0.188,0.162-0.297,0.365-0.328,0.607c-0.031,0.275,0.029,0.509,0.188,0.701
	c0.162,0.218,0.364,0.343,0.606,0.374c1.255,0.156,2.484,0.327,3.693,0.514c0.256,0.034,0.488-0.028,0.7-0.187
	c0.201-0.152,0.31-0.354,0.327-0.608c0.057-0.256,0.01-0.49-0.141-0.701c-0.151-0.209-0.354-0.333-0.607-0.374
	C160.404,3.093,159.158,2.922,157.889,2.766 M96.713,14.544c-0.24-0.083-0.475-0.068-0.701,0.046
	c-1.169,0.6-2.291,1.192-3.365,1.776c-0.217,0.142-0.356,0.329-0.42,0.561c-0.075,0.26-0.06,0.494,0.046,0.701
	c0.143,0.241,0.329,0.396,0.562,0.467c0.267,0.075,0.516,0.044,0.747-0.093c1.044-0.569,2.135-1.146,3.271-1.729
	c0.23-0.124,0.387-0.311,0.468-0.561c0.083-0.241,0.067-0.475-0.047-0.701C97.149,14.781,96.963,14.625,96.713,14.544
	 M103.442,13.049c0.234-0.096,0.39-0.268,0.468-0.514c0.114-0.236,0.114-0.469,0-0.701c-0.097-0.235-0.268-0.406-0.515-0.514
	c-0.234-0.083-0.469-0.083-0.701,0c-1.129,0.522-2.267,1.052-3.411,1.589c-0.222,0.114-0.377,0.285-0.468,0.514
	c-0.083,0.253-0.067,0.487,0.047,0.701c0.113,0.252,0.285,0.424,0.514,0.514c0.254,0.083,0.487,0.067,0.701-0.047
	C101.207,14.069,102.328,13.555,103.442,13.049 M110.359,8.562c-0.231-0.107-0.465-0.123-0.701-0.047
	c-1.161,0.452-2.329,0.904-3.506,1.355c-0.225,0.117-0.396,0.289-0.514,0.514c-0.083,0.249-0.083,0.483,0,0.701
	c0.117,0.255,0.288,0.427,0.514,0.514c0.25,0.115,0.482,0.115,0.701,0c1.16-0.451,2.312-0.903,3.459-1.355
	c0.236-0.076,0.408-0.232,0.514-0.467c0.107-0.231,0.107-0.465,0-0.701C110.75,8.838,110.596,8.667,110.359,8.562 M127.417,5.337
	c0.229,0.159,0.462,0.206,0.701,0.14c1.254-0.194,2.5-0.381,3.737-0.561c0.254-0.041,0.457-0.165,0.608-0.374
	c0.158-0.21,0.222-0.444,0.187-0.701c-0.039-0.252-0.164-0.455-0.373-0.607c-0.211-0.158-0.444-0.22-0.701-0.187
	c-1.254,0.195-2.516,0.397-3.785,0.608c-0.239,0.057-0.441,0.181-0.607,0.374c-0.127,0.229-0.175,0.462-0.141,0.701
	C127.1,5,127.225,5.202,127.417,5.337 M120.453,5.197c-0.245,0.085-0.432,0.241-0.561,0.467c-0.138,0.221-0.185,0.454-0.141,0.701
	c0.084,0.246,0.24,0.433,0.467,0.561c0.221,0.137,0.454,0.168,0.701,0.093c1.199-0.295,2.398-0.576,3.6-0.841
	c0.25-0.035,0.437-0.16,0.561-0.374c0.16-0.216,0.207-0.45,0.141-0.701c-0.035-0.25-0.16-0.452-0.373-0.607
	c-0.217-0.128-0.449-0.175-0.701-0.141C122.915,4.62,121.686,4.9,120.453,5.197 M113.116,8.982c0.227,0.138,0.46,0.169,0.7,0.094
	c1.178-0.366,2.36-0.725,3.553-1.075c0.264-0.063,0.449-0.219,0.561-0.467c0.139-0.207,0.17-0.441,0.094-0.701
	c-0.069-0.232-0.227-0.418-0.467-0.561c-0.207-0.106-0.441-0.122-0.701-0.047c-1.207,0.343-2.406,0.701-3.599,1.075
	c-0.243,0.081-0.43,0.236-0.562,0.467c-0.106,0.226-0.122,0.459-0.047,0.701C112.729,8.71,112.885,8.882,113.116,8.982
	 M201.07,27.909c-0.232-0.043-0.467,0.003-0.7,0.14c-0.205,0.138-0.345,0.325-0.421,0.561c-0.043,0.264,0.004,0.497,0.141,0.701
	c0.637,1.045,1.213,2.104,1.729,3.178c0.113,0.252,0.285,0.423,0.515,0.514c0.254,0.083,0.487,0.068,0.701-0.047
	c0.252-0.114,0.424-0.301,0.514-0.561c0.083-0.222,0.067-0.456-0.047-0.701c-0.543-1.138-1.149-2.26-1.821-3.365
	C201.541,28.125,201.339,27.985,201.07,27.909 M196.631,21.833c-0.262-0.024-0.496,0.038-0.699,0.187
	c-0.197,0.181-0.307,0.399-0.328,0.654c-0.023,0.262,0.039,0.496,0.188,0.701c0.816,0.943,1.58,1.893,2.29,2.851
	c0.144,0.224,0.33,0.348,0.562,0.374c0.271,0.058,0.504,0.011,0.7-0.14c0.226-0.144,0.349-0.346,0.374-0.607
	c0.059-0.239,0.012-0.473-0.141-0.701c-0.723-1.005-1.502-2.002-2.336-2.991C197.089,21.964,196.887,21.855,196.631,21.833
	 M192.332,17.16c-0.18-0.17-0.396-0.249-0.654-0.233c-0.26,0.012-0.479,0.105-0.654,0.28c-0.172,0.209-0.248,0.443-0.233,0.701
	c0.013,0.259,0.106,0.478,0.28,0.654c0.966,0.857,1.885,1.745,2.758,2.664c0.195,0.185,0.414,0.278,0.654,0.281
	c0.276,0.006,0.511-0.087,0.701-0.281c0.185-0.164,0.276-0.382,0.279-0.654c0.006-0.246-0.088-0.464-0.279-0.654
	C194.279,18.966,193.329,18.047,192.332,17.16 M186.256,12.393c-0.217-0.136-0.449-0.183-0.701-0.14
	c-0.258,0.066-0.459,0.207-0.606,0.42c-0.136,0.217-0.183,0.45-0.14,0.701c0.065,0.258,0.207,0.46,0.42,0.607
	c1.035,0.671,2.031,1.388,2.99,2.15c0.225,0.158,0.458,0.22,0.701,0.187c0.273-0.031,0.492-0.156,0.654-0.374
	c0.158-0.192,0.22-0.426,0.188-0.701c-0.031-0.243-0.156-0.445-0.373-0.607C188.383,13.841,187.34,13.093,186.256,12.393
	 M178.451,9.122c-0.114,0.245-0.131,0.479-0.047,0.701c0.091,0.26,0.246,0.447,0.468,0.561c1.112,0.522,2.188,1.067,3.226,1.635
	c0.23,0.137,0.465,0.168,0.7,0.094c0.263-0.071,0.45-0.227,0.562-0.467c0.138-0.208,0.168-0.441,0.094-0.701
	c-0.062-0.232-0.204-0.419-0.421-0.561c-1.082-0.584-2.203-1.146-3.365-1.682c-0.214-0.114-0.446-0.13-0.7-0.047
	C178.736,8.745,178.564,8.9,178.451,9.122 M172.609,5.851c-0.232-0.083-0.467-0.068-0.701,0.046
	c-0.23,0.115-0.387,0.287-0.467,0.514c-0.084,0.264-0.068,0.513,0.047,0.748c0.115,0.23,0.285,0.386,0.514,0.467
	c1.215,0.397,2.383,0.818,3.505,1.262c0.249,0.114,0.483,0.114,0.701,0c0.257-0.087,0.429-0.259,0.515-0.514
	c0.114-0.218,0.114-0.452,0-0.701c-0.086-0.226-0.259-0.397-0.515-0.514C175.057,6.699,173.855,6.263,172.609,5.851 M169.665,5.944
	c0.075-0.247,0.044-0.48-0.095-0.701c-0.127-0.227-0.314-0.383-0.561-0.468c-1.199-0.296-2.43-0.577-3.691-0.841
	c-0.252-0.035-0.485,0.012-0.7,0.14c-0.216,0.156-0.354,0.358-0.421,0.607c-0.035,0.252,0.012,0.486,0.141,0.701
	c0.155,0.214,0.357,0.339,0.607,0.374c1.229,0.266,2.43,0.546,3.599,0.841c0.246,0.075,0.479,0.043,0.7-0.093
	C169.473,6.377,169.611,6.19,169.665,5.944z"/>
</svg>
