<?xml version="1.0" encoding="utf-8"?>
<!-- Generator: Adobe Illustrator 15.1.0, SVG Export Plug-In  -->
<!DOCTYPE svg PUBLIC "-//W3C//DTD SVG 1.1//EN" "http://www.w3.org/Graphics/SVG/1.1/DTD/svg11.dtd" [
	<!ENTITY ns_flows "http://ns.adobe.com/Flows/1.0/">
]>
<svg version="1.1"
	 xmlns="http://www.w3.org/2000/svg" xmlns:xlink="http://www.w3.org/1999/xlink" xmlns:a="http://ns.adobe.com/AdobeSVGViewerExtensions/3.0/"
	 x="0px" y="0px" width="313px" height="77px" viewBox="-0.902 -0.527 313 77"
	 overflow="visible" enable-background="new -0.902 -0.527 313 77" xml:space="preserve">
<defs>
</defs>
<path fill="#CCCCCC" d="M169.095,48.202l-0.001-34.116c0-3.116-1.558-4.674-4.674-4.674L76.559,9.414
	c-3.115,0-4.673,1.558-4.673,4.674l0.001,34.115c0,3.116,1.558,4.674,4.673,4.674l87.861-0.002
	C167.537,52.875,169.095,51.317,169.095,48.202 M116.331,51.848l0.654-1.588h0.047l0.841-2.104h-1.496l4.065-9.768l4.113,9.768
	h-1.449l1.589,3.738h-8.366l0.047-0.047H116.331"/>
<g>
	<defs>
		<rect id="SVGID_2_" x="62.399" y="12.872" width="28.555" height="32.854"/>
	</defs>
	<clipPath id="SVGID_3_">
		<use xlink:href="#SVGID_2_"  overflow="visible"/>
	</clipPath>
	<text transform="matrix(1 -2.000000e-05 2.000000e-05 1 64.2983 37.7051)" font-family="'Arial-BoldMT'" font-size="21.4979">1</text>
</g>
<g>
	<defs>
		<rect id="SVGID_1_" x="113.162" y="13.338" width="19.815" height="32.855"/>
	</defs>
	<clipPath id="SVGID_4_">
		<use xlink:href="#SVGID_1_"  overflow="visible"/>
	</clipPath>
	<text transform="matrix(1 -2.000000e-05 2.000000e-05 1 115.061 38.1719)" font-family="'Arial-BoldMT'" font-size="21.4979">2</text>
</g>
<path fill="#FFFFFF" d="M180.311,5.674c0-3.116-1.559-4.674-4.674-4.674L64.408,1.002c-3.116,0-4.673,1.558-4.673,4.674v18.133
	c-2.149,0-4.003,0.778-5.561,2.336c-1.558,1.559-2.337,3.428-2.337,5.609c0,2.18,0.779,4.05,2.337,5.607
	c1.558,1.558,3.412,2.337,5.562,2.336l0,17.386c0,3.116,1.558,4.674,4.673,4.674l111.229-0.002c3.115,0,4.673-1.558,4.673-4.674
	V39.695c2.213,0,4.098-0.778,5.654-2.336c1.559-1.559,2.338-3.428,2.338-5.608s-0.779-4.05-2.338-5.608
	c-1.558-1.558-3.442-2.336-5.654-2.336V5.674 M181.012,28.76c0.841,0,1.558,0.297,2.149,0.889c0.593,0.592,0.888,1.309,0.888,2.149
	s-0.295,1.558-0.888,2.149c-0.592,0.592-1.308,0.889-2.149,0.889s-1.574-0.297-2.197-0.889c-0.561-0.592-0.841-1.309-0.841-2.149
	s0.28-1.558,0.841-2.149C179.438,29.057,180.17,28.76,181.012,28.76 M177.927,21.656V8.711c0-3.115-1.558-4.674-4.674-4.674
	L91.888,4.039l81.365-0.002c3.116,0,4.674,1.559,4.674,4.674V21.656 M164.42,9.412c3.116,0,4.674,1.558,4.674,4.674l0.001,34.116
	c0,3.115-1.558,4.673-4.674,4.673L76.56,52.877c-3.116,0-4.673-1.558-4.673-4.674l-0.001-34.115c0-3.116,1.558-4.674,4.673-4.674
	L164.42,9.412 M60.343,27.22c1.277,0,2.368,0.452,3.271,1.355c0.903,0.903,1.355,1.993,1.355,3.271c0,1.277-0.452,2.368-1.355,3.271
	s-1.994,1.354-3.271,1.354s-2.399-0.451-3.365-1.354c-0.841-0.903-1.262-1.994-1.262-3.271s0.421-2.368,1.262-3.271
	C57.944,27.672,59.065,27.22,60.343,27.22 M63.521,53.719c0,3.115,1.558,4.673,4.674,4.673l81.365-0.001l-81.365,0.001
	C65.079,58.392,63.521,56.834,63.521,53.719V40.773V53.719 M63.614,28.575c-0.904-0.903-1.994-1.355-3.271-1.355
	s-2.399,0.452-3.365,1.355c-0.841,0.903-1.262,1.994-1.262,3.271s0.421,2.368,1.262,3.271c0.966,0.903,2.087,1.354,3.365,1.354
	s2.368-0.451,3.271-1.354s1.355-1.994,1.355-3.271C64.969,30.568,64.518,29.479,63.614,28.575 M58.24,29.65
	c0.623-0.592,1.355-0.889,2.196-0.889s1.558,0.297,2.15,0.889s0.888,1.309,0.888,2.149s-0.296,1.558-0.888,2.149
	c-0.592,0.592-1.309,0.889-2.15,0.889c-0.841,0-1.573-0.297-2.196-0.889c-0.561-0.592-0.841-1.309-0.841-2.149
	S57.679,30.242,58.24,29.65 M60.436,28.762c-0.841,0-1.573,0.297-2.196,0.889c-0.561,0.592-0.841,1.309-0.841,2.149
	s0.28,1.558,0.841,2.149c0.623,0.592,1.355,0.889,2.196,0.889c0.841,0,1.558-0.297,2.15-0.889c0.592-0.592,0.888-1.309,0.888-2.149
	s-0.296-1.558-0.888-2.149S61.277,28.762,60.436,28.762 M59.735,33.763l1.869-4.206L59.735,33.763 M117.874,48.156l2.617-6.31
	l2.617,6.31h1.449l-4.113-9.768l-4.065,9.768H117.874 M116.985,50.26l-0.187,0.561l-0.42,1.027l-0.047,0.047h8.366l-0.701-1.636
	l-6.963,0.001H116.985 M183.161,29.648c-0.592-0.592-1.309-0.889-2.149-0.889c-0.842,0-1.574,0.297-2.197,0.889
	c-0.561,0.592-0.841,1.309-0.841,2.149s0.28,1.558,0.841,2.149c0.623,0.592,1.355,0.889,2.197,0.889s1.558-0.297,2.149-0.889
	c0.593-0.592,0.888-1.309,0.888-2.149S183.754,30.24,183.161,29.648 M179.235,30.256l3.599,2.897L179.235,30.256 M201.995,26.938
	c-3.614,0-5.421,1.791-5.421,5.374v24.396c0,0.343,0.047,0.67,0.141,0.981c0.374,2.711,2.135,4.065,5.281,4.065h72.859
	c3.115-0.001,4.892-1.355,5.327-4.066c0.031-0.312,0.047-0.639,0.047-0.982V32.311c0-3.583-1.792-5.375-5.375-5.375L201.995,26.938
	 M200.921,52.548l-0.001-16.825c0.062-3.115,1.684-4.673,4.861-4.673l17.525-0.001c2.959,0.094,4.471,1.652,4.533,4.674v16.824
	c0,0.156,0,0.281,0,0.374c-0.156,2.897-1.666,4.394-4.533,4.487h-17.525c-3.115,0-4.736-1.496-4.86-4.486
	C200.921,52.828,200.921,52.703,200.921,52.548 M248.684,35.723c0.062-3.115,1.667-4.674,4.813-4.674h17.572
	c2.929,0.094,4.439,1.65,4.533,4.674v16.824c0,0.155,0,0.279,0,0.373c-0.155,2.898-1.667,4.394-4.533,4.486l-17.572,0.001
	c-3.084,0-4.688-1.495-4.813-4.486c0-0.094,0-0.218,0-0.374V35.723 M253.497,31.049c-3.146,0-4.751,1.559-4.813,4.674v16.824
	c0,0.156,0,0.28,0,0.374c0.125,2.991,1.729,4.486,4.813,4.486l17.572-0.001c2.866-0.093,4.378-1.588,4.533-4.486
	c0-0.094,0-0.218,0-0.373V35.723c-0.094-3.023-1.604-4.58-4.533-4.674H253.497 M254.104,52.033
	c-2.181-2.213-3.271-4.861-3.271-7.945s1.091-5.732,3.271-7.945c2.212-2.181,4.86-3.271,7.945-3.271c3.053,0,5.654,1.06,7.805,3.178
	c0.062,0.031,0.108,0.062,0.14,0.094c2.182,2.213,3.271,4.86,3.271,7.945c0,3.084-1.09,5.732-3.271,7.945
	c-0.03,0.03-0.077,0.062-0.14,0.093c-2.149,2.118-4.751,3.179-7.805,3.179C258.965,55.305,256.317,54.214,254.104,52.033
	 M250.833,44.088c0,3.084,1.091,5.732,3.271,7.945c2.213,2.181,4.86,3.271,7.945,3.271c3.054,0,5.655-1.061,7.805-3.179
	c0.062-0.031,0.109-0.062,0.14-0.093c2.182-2.213,3.271-4.861,3.271-7.945c0-3.085-1.09-5.732-3.271-7.945
	c-0.031-0.031-0.078-0.062-0.14-0.094c-2.15-2.118-4.752-3.178-7.805-3.178c-3.085,0-5.733,1.091-7.945,3.271
	C251.924,38.355,250.833,41.004,250.833,44.088 M256.441,38.152c1.589-1.558,3.474-2.336,5.654-2.336
	c2.213-0.001,4.082,0.778,5.608,2.336c1.589,1.589,2.384,3.474,2.384,5.654c0,2.213-0.794,4.082-2.384,5.609
	c-1.526,1.588-3.396,2.383-5.607,2.383c-2.182,0-4.066-0.795-5.655-2.383c-1.558-1.527-2.337-3.396-2.337-5.608
	C254.104,41.627,254.884,39.742,256.441,38.152 M262.096,35.816c-2.181,0-4.065,0.778-5.654,2.336
	c-1.558,1.59-2.337,3.475-2.337,5.655c0,2.212,0.779,4.081,2.337,5.608c1.589,1.588,3.474,2.383,5.655,2.383
	c2.212,0,4.081-0.795,5.607-2.383c1.59-1.527,2.384-3.396,2.384-5.609c0-2.181-0.795-4.065-2.384-5.654
	C266.178,36.595,264.309,35.815,262.096,35.816 M260.881,48.574v-9.721l4.814,4.86L260.881,48.574 M260.881,38.854v9.721l4.814-4.86
	L260.881,38.854 M261.629,46.518v-5.561l2.851,2.757L261.629,46.518 M261.629,40.957v5.561l2.851-2.804L261.629,40.957
	 M200.92,35.723l0.001,16.825c0,0.155,0,0.28,0,0.374c0.124,2.99,1.745,4.486,4.86,4.486h17.525c2.867-0.094,4.377-1.59,4.533-4.487
	c0-0.093,0-0.218,0-0.374V35.723c-0.062-3.021-1.574-4.58-4.533-4.674l-17.525,0.001C202.604,31.05,200.982,32.607,200.92,35.723
	 M206.342,52.033c-2.181-2.212-3.271-4.859-3.271-7.944s1.09-5.733,3.271-7.945c2.212-2.181,4.86-3.271,7.945-3.271
	c3.053,0,5.654,1.06,7.805,3.178c0.062,0.031,0.108,0.062,0.14,0.094c2.181,2.212,3.271,4.86,3.271,7.944
	c0,3.085-1.091,5.733-3.271,7.945c-0.031,0.031-0.078,0.062-0.141,0.094c-2.15,2.119-4.752,3.178-7.805,3.178
	C211.203,55.305,208.555,54.215,206.342,52.033 M203.07,44.089c0,3.085,1.091,5.732,3.271,7.944
	c2.213,2.182,4.861,3.271,7.945,3.271c3.053,0,5.654-1.059,7.805-3.178c0.062-0.031,0.109-0.062,0.141-0.094
	c2.18-2.212,3.271-4.86,3.271-7.945c0-3.084-1.091-5.732-3.271-7.944c-0.031-0.031-0.077-0.062-0.14-0.094
	c-2.15-2.118-4.752-3.178-7.805-3.178c-3.085,0-5.733,1.091-7.945,3.271C204.16,38.355,203.07,41.004,203.07,44.089 M208.679,38.153
	c1.589-1.558,3.474-2.337,5.655-2.337c2.211,0,4.081,0.779,5.607,2.337c1.59,1.589,2.384,3.474,2.384,5.655
	c0,2.211-0.794,4.081-2.384,5.607c-1.526,1.59-3.396,2.384-5.607,2.384c-2.182,0-4.066-0.794-5.655-2.384
	c-1.558-1.526-2.337-3.396-2.337-5.607C206.342,41.627,207.121,39.742,208.679,38.153 M214.334,35.816
	c-2.182,0-4.066,0.779-5.655,2.337c-1.558,1.589-2.337,3.474-2.337,5.655c0,2.212,0.779,4.081,2.337,5.607
	c1.589,1.59,3.474,2.384,5.655,2.384c2.212,0,4.081-0.794,5.607-2.384c1.59-1.526,2.384-3.396,2.384-5.607
	c0-2.182-0.794-4.066-2.384-5.655C218.415,36.596,216.545,35.816,214.334,35.816 M215.549,48.575l-4.861-4.86l4.861-4.861V48.575
	 M210.688,43.715l4.861,4.86v-9.722L210.688,43.715 M214.754,46.519l-2.851-2.804l2.851-2.758V46.519 M211.903,43.715l2.851,2.804
	v-5.562L211.903,43.715"/>
<path d="M117.874,48.156l-0.841,2.104l6.963-0.001l-0.888-2.103l-2.617-6.31L117.874,48.156 M116.378,51.848l0.42-1.027
	l-0.467,1.027H116.378"/>
<path id="help_0_Layer3_0_2_STROKES_1_" fill="none" stroke="#000000" stroke-width="2" stroke-linecap="square" stroke-miterlimit="3" d="
	M175.637,1L64.408,1.002c-3.116,0-4.673,1.558-4.673,4.674v18.133c-2.149,0-4.003,0.778-5.561,2.336
	c-1.558,1.559-2.337,3.428-2.337,5.609c0,2.18,0.779,4.05,2.337,5.607c1.558,1.558,3.412,2.337,5.562,2.336l0,17.386
	c0,3.116,1.558,4.674,4.673,4.674l111.229-0.002c3.115,0,4.673-1.558,4.673-4.674V39.695c2.213,0,4.098-0.778,5.654-2.336
	c1.559-1.559,2.338-3.428,2.338-5.608s-0.779-4.05-2.338-5.608c-1.558-1.558-3.442-2.336-5.654-2.336V5.674
	C180.311,2.558,178.752,1,175.637,1z M164.42,9.412L76.559,9.414c-3.115,0-4.673,1.558-4.673,4.674l0.001,34.115
	c0,3.116,1.558,4.674,4.673,4.674l87.861-0.002c3.116,0,4.674-1.558,4.674-4.673l-0.001-34.116
	C169.094,10.97,167.536,9.412,164.42,9.412z"/>
<path id="help_0_Layer3_0_3_STROKES_1_" fill="none" stroke="#000000" stroke-linecap="round" stroke-linejoin="round" d="
	M183.161,29.648c0.593,0.592,0.888,1.309,0.888,2.149s-0.295,1.558-0.888,2.149c-0.592,0.592-1.308,0.889-2.149,0.889
	s-1.574-0.297-2.197-0.889c-0.561-0.592-0.841-1.309-0.841-2.149s0.28-1.558,0.841-2.149c0.623-0.592,1.355-0.889,2.197-0.889
	C181.853,28.76,182.569,29.057,183.161,29.648z M60.436,28.762c0.841,0,1.558,0.297,2.15,0.889s0.888,1.309,0.888,2.149
	s-0.296,1.558-0.888,2.149c-0.592,0.592-1.309,0.889-2.15,0.889c-0.841,0-1.573-0.297-2.196-0.889
	c-0.561-0.592-0.841-1.309-0.841-2.149s0.28-1.558,0.841-2.149C58.863,29.059,59.595,28.762,60.436,28.762z M63.614,28.575
	c0.903,0.903,1.355,1.993,1.355,3.271c0,1.277-0.452,2.368-1.355,3.271s-1.994,1.354-3.271,1.354s-2.399-0.451-3.365-1.354
	c-0.841-0.903-1.262-1.994-1.262-3.271s0.421-2.368,1.262-3.271c0.966-0.903,2.087-1.355,3.365-1.355S62.71,27.672,63.614,28.575z"
	/>
<path id="help_0_Layer3_0_4_STROKES_1_" fill="none" stroke="#000000" stroke-width="2" stroke-linecap="round" stroke-linejoin="round" d="
	M179.235,30.256l3.599,2.897 M59.735,33.763l1.869-4.206"/>
<path id="help_0_Layer3_0_5_STROKES_1_" fill="none" stroke="#000000" stroke-width="2" stroke-linecap="round" stroke-linejoin="round" stroke-opacity="0.251" d="
	M149.98,35.537l0-12.338 M140.82,35.537V23.199 M159.514,35.537V23.199 M97.824,35.538l0-12.338 M88.664,35.538l0-12.338
	 M80.065,35.538l0-12.338"/>
<path id="help_0_Layer3_0_6_STROKES_1_" fill="none" stroke="#000000" stroke-linecap="square" stroke-miterlimit="3" d="
	M177.927,21.656V8.711c0-3.115-1.558-4.674-4.674-4.674L91.888,4.039 M63.521,40.773v12.945c0,3.115,1.558,4.673,4.674,4.673
	l81.365-0.001"/>
<path id="help_0_Layer3_0_7_STROKES_1_" fill="none" stroke="#000000" stroke-linecap="square" stroke-miterlimit="3" d="
	M200.921,52.548c0,0.155,0,0.28,0,0.374c0.124,2.99,1.745,4.486,4.86,4.486h17.525c2.867-0.094,4.377-1.59,4.533-4.487
	c0-0.093,0-0.218,0-0.374V35.723c-0.062-3.021-1.574-4.58-4.533-4.674l-17.525,0.001c-3.178,0-4.799,1.558-4.861,4.673
	L200.921,52.548z M196.574,32.312v24.396c0,0.343,0.047,0.67,0.141,0.981c0.374,2.711,2.135,4.065,5.281,4.065h72.859
	c3.115-0.001,4.892-1.355,5.327-4.066c0.031-0.312,0.047-0.639,0.047-0.982V32.311c0-3.583-1.792-5.375-5.375-5.375l-72.859,0.002
	C198.381,26.938,196.574,28.729,196.574,32.312z M248.684,35.723v16.824c0,0.156,0,0.28,0,0.374
	c0.125,2.991,1.729,4.486,4.813,4.486l17.572-0.001c2.866-0.093,4.378-1.588,4.533-4.486c0-0.094,0-0.218,0-0.373V35.723
	c-0.094-3.023-1.604-4.58-4.533-4.674h-17.572C250.351,31.049,248.746,32.607,248.684,35.723z M206.342,36.144
	c2.212-2.181,4.86-3.271,7.945-3.271c3.053,0,5.654,1.06,7.805,3.178c0.062,0.031,0.108,0.062,0.14,0.094
	c2.181,2.212,3.271,4.86,3.271,7.944c0,3.085-1.091,5.733-3.271,7.945c-0.031,0.031-0.078,0.062-0.141,0.094
	c-2.15,2.119-4.752,3.178-7.805,3.178c-3.084,0-5.732-1.09-7.945-3.271c-2.181-2.212-3.271-4.859-3.271-7.944
	S204.16,38.355,206.342,36.144z M214.334,35.816c2.211,0,4.081,0.779,5.607,2.337c1.59,1.589,2.384,3.474,2.384,5.655
	c0,2.211-0.794,4.081-2.384,5.607c-1.526,1.59-3.396,2.384-5.607,2.384c-2.182,0-4.066-0.794-5.655-2.384
	c-1.558-1.526-2.337-3.396-2.337-5.607c0-2.182,0.779-4.066,2.337-5.655C210.268,36.596,212.152,35.816,214.334,35.816z
	 M211.903,43.715l2.851-2.758v5.562L211.903,43.715z M210.688,43.715l4.861-4.861v9.722L210.688,43.715z M262.096,35.816
	c2.213-0.001,4.082,0.778,5.608,2.336c1.589,1.589,2.384,3.474,2.384,5.654c0,2.213-0.794,4.082-2.384,5.609
	c-1.526,1.588-3.396,2.383-5.607,2.383c-2.182,0-4.066-0.795-5.655-2.383c-1.558-1.527-2.337-3.396-2.337-5.608
	c0-2.181,0.779-4.065,2.337-5.655C258.03,36.595,259.915,35.816,262.096,35.816z M250.833,44.088c0-3.084,1.091-5.732,3.271-7.945
	c2.212-2.181,4.86-3.271,7.945-3.271c3.053,0,5.654,1.06,7.805,3.178c0.062,0.031,0.108,0.062,0.14,0.094
	c2.182,2.213,3.271,4.86,3.271,7.945c0,3.084-1.09,5.732-3.271,7.945c-0.03,0.03-0.077,0.062-0.14,0.093
	c-2.149,2.118-4.751,3.179-7.805,3.179c-3.085,0-5.732-1.091-7.945-3.271C251.924,49.82,250.833,47.172,250.833,44.088z
	 M260.881,48.574l4.814-4.86l-4.814-4.86V48.574z M261.629,46.518l2.851-2.804l-2.851-2.757V46.518z"/>
<path id="help_0_Layer2_0_1_STROKES_1_" fill="none" stroke="#FFFFFF" stroke-width="6" stroke-linecap="round" stroke-linejoin="round" d="
	M202.043,47.267c-1.185,1.185-2.354,2.866-3.506,5.048c-0.717,1.402-2.041,4.081-3.973,8.038 M190.826,72.504
	c-2.025-0.936-3.785-2.321-5.281-4.16c-1.464-1.838-2.196-3.566-2.196-5.188c0-3.957,1.87-7.602,5.608-10.936
	c3.707-3.303,7.758-4.954,12.15-4.954c-1.34-0.187-2.727-0.763-4.159-1.729c-1.963-1.495-3.692-2.788-5.188-3.879 M3,65.029
	c3.895-9.908,11.123-18.787,21.685-26.639c16.793-12.494,37.06-18.742,60.801-18.742c6.605,0,12.961,0.482,19.068,1.448
	c0.312-0.249,0.654-0.483,1.028-0.7c4.206-2.648,9.285-3.973,15.235-3.973c5.951-0.001,11.014,1.323,15.189,3.972
	c4.206,2.647,6.31,5.842,6.31,9.58c0,1.714-0.437,3.303-1.309,4.767c-1.028,1.776-2.695,3.381-5,4.814
	c-4.175,2.648-9.238,3.973-15.189,3.973c-5.951,0-11.029-1.324-15.235-3.973c-4.175-2.648-6.263-5.842-6.263-9.58
	c0-3.396,1.745-6.355,5.234-8.88 M279.996,52.406c0-0.654-0.53-1.775-1.589-3.365c-0.873-1.34-1.449-2.305-1.729-2.897l-0.654-0.046
	c0.094-0.062,0.265-0.188,0.514-0.375c0.53-0.373,1.449-0.98,2.758-1.822c1.246-0.811,1.947-1.636,2.103-2.477 M276.537,45.723
	c0.031,0.125,0.078,0.266,0.141,0.421l4.767,0.094c2.711,0.062,5.811,0.794,9.301,2.196c5.016,2.025,9.347,5.219,12.992,9.58
	c3.178,3.863,4.767,7.088,4.767,9.674c0,0.717-0.062,1.277-0.187,1.684c-0.062,0.311-0.233,0.731-0.515,1.262"/>
<path d="M4.168,60.729c-0.229,0.091-0.4,0.246-0.514,0.468c-0.538,1.152-1.052,2.305-1.542,3.458c-0.083,0.249-0.083,0.482,0,0.701
	c0.118,0.257,0.29,0.429,0.514,0.514c0.25,0.114,0.483,0.114,0.701,0c0.257-0.087,0.428-0.258,0.514-0.514
	c0.475-1.122,0.974-2.243,1.495-3.365c0.114-0.214,0.13-0.448,0.047-0.701c-0.09-0.229-0.262-0.4-0.514-0.514
	C4.655,60.662,4.422,60.646,4.168,60.729 M9.122,54.934c-0.034-0.248-0.159-0.45-0.374-0.607c-0.214-0.127-0.448-0.174-0.701-0.14
	c-0.248,0.065-0.45,0.206-0.607,0.421C6.73,55.682,6.06,56.757,5.43,57.832c-0.137,0.221-0.184,0.455-0.14,0.701
	c0.084,0.246,0.24,0.433,0.467,0.561c0.221,0.137,0.454,0.168,0.701,0.094c0.246-0.055,0.433-0.195,0.561-0.421
	c0.616-1.044,1.271-2.087,1.963-3.132C9.141,55.42,9.188,55.188,9.122,54.934 M23.282,38.297c-1.044,0.786-2.072,1.596-3.084,2.43
	c-0.196,0.189-0.305,0.408-0.327,0.654c-0.024,0.271,0.038,0.504,0.187,0.701c0.189,0.197,0.407,0.307,0.654,0.327
	c0.27,0.024,0.504-0.054,0.701-0.233c0.981-0.818,1.979-1.612,2.991-2.384c0.209-0.161,0.334-0.38,0.374-0.654
	c0.034-0.234-0.029-0.452-0.187-0.654c-0.161-0.21-0.379-0.335-0.654-0.374C23.703,38.076,23.484,38.139,23.282,38.297 M30.9,34.932
	c0.075-0.233,0.043-0.467-0.093-0.701c-0.138-0.205-0.34-0.345-0.608-0.42c-0.232-0.044-0.466,0.003-0.701,0.14
	c-1.06,0.661-2.119,1.347-3.178,2.056c-0.192,0.166-0.316,0.369-0.374,0.608c-0.035,0.27,0.012,0.503,0.14,0.7
	c0.166,0.225,0.368,0.349,0.607,0.375c0.27,0.064,0.503,0.018,0.701-0.141c1.028-0.693,2.056-1.363,3.084-2.01
	C30.714,35.401,30.854,35.199,30.9,34.932 M12.72,48.298c-0.26,0.013-0.478,0.106-0.654,0.28c-0.858,0.974-1.668,1.955-2.43,2.944
	c-0.158,0.202-0.22,0.42-0.187,0.654c0.039,0.274,0.164,0.493,0.374,0.654c0.201,0.158,0.419,0.221,0.654,0.187
	c0.274-0.039,0.493-0.164,0.654-0.373c0.733-0.942,1.512-1.877,2.337-2.805c0.171-0.179,0.249-0.396,0.233-0.654
	c-0.012-0.26-0.121-0.479-0.327-0.654C13.197,48.36,12.979,48.282,12.72,48.298 M14.543,45.914c-0.162,0.191-0.24,0.41-0.233,0.654
	c0.002,0.273,0.096,0.49,0.28,0.654c0.19,0.193,0.409,0.287,0.654,0.281c0.272-0.004,0.49-0.098,0.654-0.281
	c0.842-0.855,1.714-1.697,2.617-2.523c0.205-0.176,0.314-0.395,0.327-0.654c0.015-0.258-0.062-0.492-0.234-0.701
	c-0.176-0.175-0.394-0.268-0.654-0.28c-0.257-0.016-0.491,0.062-0.701,0.233C16.318,44.154,15.415,45.026,14.543,45.914
	 M107.078,40.398c-0.115,0.234-0.13,0.469-0.047,0.701c0.082,0.258,0.237,0.445,0.467,0.561c1.111,0.55,2.279,1.002,3.505,1.355
	c0.259,0.074,0.493,0.043,0.701-0.094c0.241-0.11,0.396-0.297,0.467-0.561c0.075-0.229,0.044-0.463-0.093-0.701
	c-0.11-0.209-0.297-0.35-0.561-0.421c-1.111-0.331-2.17-0.752-3.178-1.262c-0.235-0.114-0.484-0.13-0.748-0.047
	C107.364,40.012,107.193,40.168,107.078,40.398 M104.18,39.744c0.229,0.158,0.462,0.205,0.701,0.141
	c0.271-0.026,0.473-0.15,0.607-0.375c0.159-0.196,0.206-0.43,0.141-0.701c-0.026-0.238-0.151-0.441-0.374-0.607
	c-0.979-0.688-1.821-1.436-2.524-2.242c-0.176-0.175-0.394-0.268-0.654-0.281c-0.257-0.016-0.491,0.062-0.701,0.234
	c-0.175,0.176-0.269,0.394-0.281,0.654c-0.015,0.257,0.063,0.475,0.234,0.654C102.122,38.127,103.072,38.969,104.18,39.744
	 M82.962,20.303c0.181,0.185,0.398,0.278,0.654,0.28c0.624,0,1.247,0,1.87,0c0.592,0,1.184,0,1.776,0
	c0.256-0.002,0.474-0.096,0.654-0.28c0.185-0.18,0.278-0.398,0.28-0.654c-0.002-0.256-0.096-0.475-0.28-0.654
	c-0.18-0.185-0.398-0.278-0.654-0.28c-0.592,0-1.184,0-1.776,0c-0.623,0-1.247,0-1.87,0c-0.256,0.002-0.474,0.096-0.654,0.28
	c-0.185,0.18-0.278,0.398-0.28,0.654C82.684,19.904,82.777,20.123,82.962,20.303 M80.392,19.088
	c-0.178-0.171-0.396-0.249-0.654-0.234c-1.285,0.062-2.562,0.141-3.832,0.234c-0.239,0.021-0.441,0.13-0.607,0.327
	c-0.172,0.196-0.25,0.413-0.234,0.654c0.021,0.27,0.13,0.487,0.327,0.654c0.196,0.171,0.414,0.249,0.654,0.233
	c1.254-0.094,2.516-0.172,3.786-0.233c0.26-0.013,0.478-0.122,0.654-0.327c0.171-0.178,0.249-0.396,0.233-0.654
	C80.707,19.482,80.598,19.264,80.392,19.088 M108.993,19.367c0.083-0.244,0.068-0.494-0.047-0.747
	c-0.105-0.221-0.276-0.376-0.514-0.468c-0.245-0.083-0.494-0.067-0.748,0.047c-0.889,0.419-1.762,0.887-2.617,1.402l0.047-0.047
	c-0.417,0.263-0.806,0.527-1.168,0.795c-0.187,0.179-0.296,0.396-0.327,0.654c-0.025,0.252,0.038,0.471,0.187,0.654
	c0.179,0.219,0.397,0.343,0.654,0.373c0.252,0.025,0.47-0.053,0.654-0.233c0.292-0.2,0.604-0.403,0.935-0.607l0,0
	c0.796-0.481,1.606-0.917,2.43-1.309C108.73,19.776,108.902,19.605,108.993,19.367 M100.254,29.696
	c-0.002-0.256-0.096-0.474-0.28-0.654c-0.18-0.185-0.398-0.278-0.654-0.28c-0.256,0.002-0.474,0.096-0.654,0.28
	c-0.185,0.181-0.278,0.398-0.28,0.654c0,0.093,0,0.187,0,0.28c0,1.369,0.249,2.662,0.748,3.879c0.118,0.256,0.29,0.428,0.514,0.514
	c0.249,0.115,0.483,0.115,0.701,0c0.257-0.086,0.428-0.258,0.514-0.514c0.114-0.217,0.114-0.451,0-0.701
	c-0.405-0.996-0.608-2.055-0.608-3.178C100.254,29.883,100.254,29.789,100.254,29.696 M95.44,19.414
	c-0.166-0.196-0.384-0.306-0.654-0.326c-1.239-0.094-2.485-0.172-3.739-0.234c-0.259-0.015-0.492,0.062-0.701,0.234
	c-0.175,0.176-0.269,0.395-0.28,0.654c-0.016,0.258,0.062,0.477,0.233,0.654c0.176,0.205,0.395,0.314,0.654,0.326
	c1.239,0.062,2.469,0.141,3.692,0.234c0.271,0.016,0.504-0.062,0.701-0.234c0.197-0.166,0.307-0.384,0.327-0.654
	C95.69,19.828,95.612,19.61,95.44,19.414 M102.264,22.125c-0.241,0.003-0.459,0.096-0.654,0.28c-0.993,1.048-1.756,2.138-2.29,3.271
	c-0.115,0.254-0.13,0.503-0.047,0.748c0.091,0.237,0.247,0.408,0.467,0.515c0.253,0.113,0.502,0.129,0.748,0.046
	c0.237-0.091,0.408-0.263,0.514-0.514c0.463-0.954,1.117-1.873,1.962-2.758c0.193-0.19,0.286-0.424,0.281-0.7
	c-0.003-0.242-0.096-0.46-0.281-0.654C102.774,22.197,102.541,22.119,102.264,22.125 M102.31,19.835
	c-1.238-0.155-2.484-0.296-3.739-0.421c-0.254-0.023-0.488,0.038-0.701,0.188c-0.188,0.18-0.297,0.398-0.327,0.654
	c-0.025,0.254,0.038,0.472,0.187,0.654c0.18,0.219,0.398,0.344,0.654,0.374c1.238,0.124,2.469,0.265,3.692,0.421
	c0.275,0.032,0.508-0.029,0.701-0.188c0.218-0.162,0.343-0.381,0.374-0.654c0.033-0.244-0.029-0.478-0.187-0.701
	C102.802,19.975,102.584,19.866,102.31,19.835 M36.835,31.754c0.239-0.11,0.395-0.297,0.467-0.562
	c0.075-0.228,0.044-0.461-0.094-0.7c-0.11-0.209-0.296-0.35-0.561-0.421c-0.227-0.075-0.46-0.06-0.701,0.046
	c-1.083,0.615-2.158,1.238-3.225,1.87c-0.226,0.128-0.382,0.315-0.467,0.561c-0.043,0.247,0.003,0.48,0.14,0.701
	c0.128,0.227,0.315,0.367,0.561,0.421c0.246,0.074,0.48,0.043,0.701-0.094C34.709,32.961,35.768,32.354,36.835,31.754
	 M45.761,25.912c-0.114,0.253-0.13,0.502-0.046,0.747c0.091,0.237,0.247,0.409,0.467,0.515c0.253,0.114,0.502,0.13,0.748,0.047
	c1.176-0.437,2.36-0.857,3.552-1.263c0.259-0.081,0.446-0.237,0.561-0.468c0.114-0.234,0.13-0.484,0.047-0.747
	c-0.082-0.228-0.237-0.399-0.467-0.515c-0.235-0.113-0.484-0.129-0.748-0.047c-1.208,0.405-2.407,0.826-3.599,1.263
	C46.038,25.535,45.867,25.691,45.761,25.912 M43.985,27.36c-0.087-0.234-0.259-0.405-0.514-0.515c-0.227-0.083-0.46-0.083-0.701,0
	c-1.161,0.522-2.313,1.052-3.458,1.59c-0.221,0.113-0.377,0.285-0.467,0.514c-0.083,0.254-0.068,0.487,0.047,0.701
	c0.113,0.252,0.285,0.424,0.514,0.514c0.253,0.084,0.487,0.068,0.701-0.047c1.13-0.521,2.267-1.035,3.412-1.542
	c0.234-0.088,0.39-0.259,0.467-0.514C44.1,27.834,44.1,27.601,43.985,27.36 M72.774,19.602c-0.182-0.148-0.4-0.211-0.654-0.187
	c-1.262,0.124-2.524,0.28-3.786,0.468c-0.253,0.039-0.456,0.164-0.607,0.373c-0.158,0.211-0.221,0.445-0.187,0.701
	c0.04,0.253,0.165,0.455,0.374,0.607c0.211,0.158,0.445,0.221,0.701,0.188c1.23-0.187,2.461-0.343,3.692-0.468
	c0.256-0.03,0.458-0.154,0.607-0.374c0.181-0.182,0.258-0.4,0.234-0.654C73.118,20,72.994,19.781,72.774,19.602 M58.24,22.733
	c-0.054-0.245-0.194-0.433-0.421-0.562c-0.22-0.137-0.454-0.183-0.701-0.14c-1.223,0.335-2.438,0.678-3.645,1.028
	c-0.232,0.07-0.419,0.211-0.561,0.421c-0.106,0.239-0.122,0.472-0.046,0.7c0.071,0.264,0.211,0.451,0.42,0.562
	c0.239,0.138,0.473,0.169,0.701,0.093c1.192-0.334,2.391-0.662,3.599-0.98c0.245-0.055,0.432-0.194,0.561-0.421
	C58.283,23.214,58.314,22.98,58.24,22.733 M64.502,20.49c-1.208,0.233-2.422,0.467-3.646,0.701c-0.25,0.066-0.452,0.206-0.607,0.42
	c-0.128,0.216-0.175,0.449-0.14,0.701c0.066,0.25,0.207,0.437,0.42,0.561c0.216,0.16,0.45,0.207,0.701,0.141
	c1.208-0.233,2.407-0.467,3.599-0.701c0.271-0.025,0.473-0.15,0.607-0.374c0.159-0.197,0.206-0.431,0.14-0.7
	c-0.025-0.24-0.15-0.442-0.374-0.607C65.005,20.502,64.772,20.455,64.502,20.49 M306.588,63.295
	c-0.083,0.244-0.067,0.479,0.047,0.701c0.562,1.228,0.874,2.334,0.935,3.318c0.013,0.261,0.106,0.479,0.28,0.654
	c0.21,0.171,0.443,0.249,0.701,0.233c0.261-0.013,0.479-0.122,0.654-0.327c0.171-0.18,0.249-0.397,0.233-0.654
	c-0.063-1.197-0.438-2.537-1.121-4.02c-0.105-0.22-0.276-0.375-0.515-0.467c-0.245-0.084-0.494-0.068-0.747,0.047
	C306.835,62.886,306.679,63.058,306.588,63.295 M302.335,57.359c-0.024,0.263,0.038,0.496,0.187,0.701
	c0.172,0.188,0.328,0.374,0.468,0.561v-0.047c0.692,0.842,1.315,1.636,1.869,2.384c0.152,0.225,0.354,0.349,0.608,0.374
	c0.248,0.058,0.466,0.011,0.654-0.141c0.224-0.15,0.349-0.354,0.373-0.607c0.058-0.248,0.011-0.481-0.14-0.701
	c-0.567-0.777-1.206-1.604-1.916-2.477l0,0c-0.141-0.188-0.296-0.373-0.468-0.561c-0.15-0.196-0.353-0.306-0.607-0.327
	c-0.263-0.024-0.496,0.038-0.701,0.187C302.466,56.887,302.356,57.104,302.335,57.359 M297.194,51.892
	c-0.158,0.201-0.221,0.419-0.188,0.654c0.04,0.274,0.165,0.493,0.374,0.654c0.942,0.726,1.846,1.489,2.711,2.29
	c0.2,0.193,0.419,0.287,0.654,0.28c0.274-0.011,0.492-0.12,0.654-0.327c0.194-0.168,0.287-0.387,0.28-0.654
	c-0.012-0.242-0.121-0.461-0.327-0.654c-0.911-0.85-1.861-1.66-2.851-2.43c-0.202-0.158-0.436-0.221-0.701-0.188
	C297.559,51.557,297.356,51.682,297.194,51.892 M290.604,49.041c0.108,0.255,0.28,0.426,0.514,0.514
	c1.12,0.493,2.195,1.039,3.226,1.637c0.221,0.137,0.455,0.168,0.7,0.093c0.246-0.054,0.434-0.194,0.562-0.421
	c0.137-0.221,0.168-0.454,0.093-0.701c-0.054-0.245-0.194-0.432-0.42-0.561c-1.089-0.648-2.227-1.24-3.412-1.775
	c-0.241-0.084-0.49-0.084-0.748,0c-0.224,0.108-0.395,0.279-0.514,0.514C290.521,48.58,290.521,48.814,290.604,49.041
	 M288.782,47.031c-0.116-0.23-0.303-0.386-0.562-0.467c-1.35-0.457-2.643-0.784-3.879-0.981c-0.257-0.034-0.49,0.028-0.701,0.187
	c-0.201,0.152-0.325,0.354-0.373,0.607c-0.026,0.257,0.036,0.49,0.187,0.701c0.152,0.209,0.354,0.334,0.607,0.374
	c1.132,0.177,2.315,0.473,3.552,0.888c0.264,0.084,0.513,0.068,0.748-0.047c0.23-0.115,0.386-0.302,0.467-0.561
	C288.912,47.5,288.896,47.267,288.782,47.031 M277.472,49.041c0.003,0.188,0.05,0.358,0.141,0.515
	c0.921,1.362,1.403,2.312,1.449,2.851c0.002,0.256,0.096,0.475,0.28,0.654c0.18,0.185,0.398,0.278,0.654,0.28
	c0.256-0.002,0.474-0.096,0.654-0.28c0.185-0.18,0.278-0.398,0.28-0.654c0.044-0.74-0.501-1.971-1.636-3.691
	c-0.024-0.152-0.103-0.293-0.234-0.422c-0.18-0.184-0.397-0.277-0.654-0.279c-0.256,0.002-0.474,0.096-0.653,0.279
	c-0.186,0.181-0.278,0.398-0.281,0.654C277.472,48.979,277.472,49.01,277.472,49.041 M280.65,43.76
	c0.033-0.257-0.029-0.49-0.188-0.701c-0.152-0.209-0.355-0.334-0.607-0.373c-0.257-0.033-0.491,0.029-0.701,0.188
	c-0.104,0.077-0.229,0.154-0.374,0.232l0,0c-1.245,0.804-2.148,1.396-2.71,1.776v0.047c-0.018,0.005-0.033,0.005-0.047,0h-0.047
	l-0.047,0.047c-0.201,0.177-0.341,0.286-0.421,0.327c-0.16,0.119-0.285,0.259-0.373,0.42c-0.059,0.199-0.074,0.387-0.047,0.562
	c0.06,0.199,0.152,0.355,0.28,0.468c0.155,0.152,0.326,0.246,0.514,0.279l0.654,0.047c0.078,0.011,0.156,0.011,0.234,0l3.598,0.094
	c0.277,0.006,0.511-0.087,0.701-0.28c0.185-0.163,0.277-0.382,0.28-0.654c0.007-0.245-0.086-0.464-0.28-0.654
	c-0.163-0.184-0.381-0.277-0.654-0.28l-1.495-0.047c0.273-0.17,0.569-0.357,0.888-0.561h-0.047c0.198-0.109,0.369-0.219,0.515-0.328
	C280.485,44.215,280.61,44.012,280.65,43.76 M186.761,70.588c0.022,0.255,0.131,0.457,0.327,0.607
	c1.031,0.873,2.137,1.59,3.318,2.149c0.244,0.114,0.479,0.13,0.701,0.047c0.26-0.091,0.447-0.262,0.561-0.515
	c0.114-0.213,0.13-0.447,0.047-0.701c-0.091-0.229-0.262-0.399-0.515-0.514c-1.03-0.5-1.997-1.139-2.897-1.916
	c-0.205-0.148-0.439-0.211-0.701-0.187c-0.256,0.021-0.473,0.13-0.654,0.327C186.799,70.092,186.736,70.324,186.761,70.588
	 M183.256,63.671c-0.232,0.085-0.419,0.241-0.562,0.468c-0.113,0.23-0.145,0.463-0.093,0.701c0.316,1.133,0.908,2.316,1.775,3.551
	c0.166,0.224,0.369,0.348,0.607,0.374c0.271,0.065,0.504,0.019,0.701-0.14c0.224-0.135,0.348-0.338,0.374-0.607
	c0.065-0.239,0.019-0.473-0.14-0.701c-0.723-1.04-1.221-2.037-1.496-2.991c-0.055-0.231-0.195-0.419-0.421-0.562
	C183.773,63.65,183.523,63.619,183.256,63.671 M184.564,56.381c-0.233,0.071-0.42,0.211-0.562,0.42
	c-0.655,1.26-1.106,2.537-1.355,3.832c-0.034,0.27,0.013,0.504,0.141,0.701c0.165,0.224,0.368,0.348,0.607,0.374
	c0.27,0.065,0.503,0.019,0.701-0.14c0.224-0.135,0.348-0.338,0.374-0.608c0.219-1.104,0.607-2.194,1.168-3.271
	c0.137-0.21,0.168-0.443,0.094-0.701c-0.072-0.233-0.228-0.42-0.468-0.562C185.057,56.32,184.822,56.305,184.564,56.381
	 M136.053,38.389c-0.214,0.155-0.354,0.357-0.42,0.607c-0.035,0.252,0.012,0.485,0.14,0.701c0.156,0.214,0.358,0.338,0.607,0.373
	c0.251,0.066,0.485,0.02,0.701-0.141c1.185-0.768,2.198-1.594,3.038-2.477c0.193-0.191,0.287-0.424,0.281-0.701
	c-0.003-0.241-0.097-0.459-0.281-0.654c-0.19-0.162-0.424-0.24-0.701-0.233c-0.241,0.003-0.459,0.097-0.654,0.28
	C138.015,36.944,137.111,37.691,136.053,38.389 M128.903,42.594c0.07,0.264,0.21,0.451,0.42,0.562
	c0.239,0.145,0.473,0.176,0.701,0.093c1.279-0.346,2.494-0.798,3.645-1.354c0.252-0.114,0.424-0.302,0.514-0.562
	c0.083-0.222,0.068-0.455-0.047-0.701c-0.113-0.221-0.3-0.377-0.561-0.467c-0.223-0.083-0.456-0.067-0.701,0.047
	c-1.061,0.51-2.183,0.931-3.365,1.262c-0.232,0.07-0.419,0.211-0.561,0.421C128.843,42.132,128.828,42.365,128.903,42.594
	 M121.378,43.482c0.003,0.273,0.096,0.491,0.28,0.654c0.191,0.193,0.409,0.287,0.654,0.28c1.333-0.028,2.611-0.138,3.833-0.327
	c0.253-0.04,0.455-0.165,0.607-0.374c0.15-0.211,0.197-0.444,0.14-0.7c-0.017-0.254-0.126-0.457-0.327-0.608
	c-0.211-0.158-0.444-0.221-0.701-0.187c-1.146,0.184-2.346,0.293-3.599,0.327c-0.242,0.003-0.459,0.097-0.654,0.28
	C121.45,43.02,121.372,43.237,121.378,43.482 M119.322,42.875c-0.167-0.197-0.385-0.307-0.654-0.327
	c-1.229-0.087-2.429-0.243-3.599-0.468c-0.239-0.034-0.472,0.013-0.701,0.141c-0.192,0.165-0.317,0.367-0.374,0.607
	c-0.034,0.27,0.012,0.503,0.14,0.701c0.166,0.223,0.368,0.348,0.608,0.374c1.229,0.243,2.491,0.415,3.785,0.514
	c0.272,0.017,0.506-0.062,0.701-0.233c0.198-0.167,0.307-0.385,0.327-0.654C119.572,43.289,119.494,43.07,119.322,42.875
	 M115.863,16.096c-0.21-0.158-0.443-0.22-0.701-0.187c-1.358,0.198-2.651,0.495-3.879,0.888c-0.243,0.081-0.43,0.236-0.561,0.468
	c-0.107,0.226-0.123,0.46-0.047,0.701c0.08,0.241,0.236,0.413,0.467,0.514c0.226,0.138,0.46,0.169,0.701,0.094
	c1.14-0.354,2.339-0.62,3.599-0.795c0.252-0.04,0.455-0.164,0.607-0.374c0.158-0.209,0.22-0.443,0.187-0.701
	C116.198,16.451,116.073,16.249,115.863,16.096 M122.687,17.404c0.258,0.016,0.477-0.062,0.654-0.233
	c0.206-0.177,0.315-0.395,0.327-0.654c0.015-0.259-0.062-0.492-0.234-0.701c-0.176-0.175-0.395-0.269-0.654-0.28
	c-0.638-0.031-1.292-0.047-1.963-0.047c-0.607,0-1.215,0.016-1.822,0.047c-0.261,0.012-0.479,0.105-0.654,0.28
	c-0.171,0.21-0.25,0.443-0.234,0.701c0.012,0.261,0.105,0.479,0.28,0.654c0.21,0.171,0.443,0.249,0.701,0.233
	c0.576-0.03,1.153-0.046,1.729-0.047C121.456,17.358,122.079,17.374,122.687,17.404 M125.911,16.049
	c-0.193,0.166-0.317,0.369-0.374,0.607c-0.034,0.271,0.013,0.505,0.141,0.701c0.166,0.225,0.369,0.349,0.607,0.374
	c1.26,0.228,2.46,0.509,3.599,0.841c0.259,0.076,0.493,0.045,0.701-0.093c0.241-0.11,0.396-0.298,0.467-0.562
	c0.075-0.229,0.044-0.461-0.093-0.701c-0.11-0.209-0.297-0.35-0.561-0.42c-1.198-0.353-2.46-0.648-3.785-0.888
	C126.373,15.875,126.139,15.922,125.911,16.049 M142.97,29.321c-0.181-0.185-0.398-0.278-0.654-0.28
	c-0.256,0.002-0.474,0.096-0.654,0.28c-0.185,0.181-0.278,0.398-0.281,0.654c-0.003,1.178-0.252,2.3-0.748,3.365
	c-0.083,0.231-0.083,0.466,0,0.701c0.107,0.238,0.279,0.409,0.514,0.514c0.231,0.106,0.465,0.106,0.701,0
	c0.246-0.077,0.417-0.232,0.514-0.468c0.596-1.302,0.892-2.672,0.888-4.112C143.248,29.72,143.154,29.502,142.97,29.321
	 M139.511,22.265c-0.237-0.007-0.455,0.071-0.654,0.233c-0.176,0.193-0.27,0.412-0.281,0.654c-0.006,0.268,0.071,0.486,0.234,0.654
	c0.837,0.9,1.46,1.836,1.87,2.805c0.127,0.234,0.314,0.391,0.561,0.467c0.235,0.115,0.469,0.115,0.701,0
	c0.235-0.096,0.391-0.268,0.467-0.514c0.114-0.235,0.114-0.469,0-0.701c-0.495-1.15-1.242-2.256-2.243-3.318
	C140.002,22.369,139.784,22.276,139.511,22.265 M136.52,19.601c-0.015-0.009-0.03-0.024-0.047-0.046
	c-0.801-0.493-1.643-0.945-2.523-1.355c-0.214-0.115-0.448-0.131-0.701-0.047c-0.229,0.09-0.4,0.246-0.514,0.467
	c-0.114,0.244-0.13,0.479-0.047,0.701c0.091,0.26,0.247,0.447,0.468,0.561c0.816,0.392,1.595,0.828,2.336,1.309
	c0.017,0.008,0.032,0.008,0.047,0c0.195,0.127,0.382,0.252,0.561,0.374c0.228,0.159,0.461,0.205,0.701,0.141
	c0.262-0.025,0.464-0.149,0.608-0.374c0.151-0.196,0.198-0.43,0.14-0.701c-0.025-0.238-0.15-0.44-0.374-0.607
	C136.963,19.875,136.746,19.734,136.52,19.601 M198.304,52.781c-0.235-0.114-0.484-0.13-0.747-0.047
	c-0.229,0.082-0.399,0.237-0.515,0.468c-0.437,0.879-0.981,2.001-1.636,3.364c-0.114,0.245-0.13,0.479-0.047,0.701
	c0.09,0.261,0.246,0.447,0.467,0.561c0.245,0.115,0.479,0.131,0.701,0.047c0.26-0.09,0.447-0.262,0.562-0.514
	c0.653-1.346,1.198-2.452,1.636-3.318c0.113-0.234,0.129-0.484,0.047-0.748C198.689,53.068,198.534,52.896,198.304,52.781
	 M202.043,46.332c-0.17,0.002-0.326,0.033-0.468,0.094c-0.095-0.042-0.204-0.073-0.327-0.094c-0.728-0.108-1.49-0.342-2.29-0.701
	c-0.224-0.114-0.457-0.13-0.701-0.047c-0.237,0.092-0.409,0.247-0.515,0.468c-0.114,0.253-0.13,0.503-0.046,0.747
	c0.091,0.238,0.247,0.409,0.468,0.515c0.371,0.167,0.729,0.308,1.074,0.421c0.056,0.118,0.134,0.212,0.234,0.28
	c0.153,0.14,0.324,0.218,0.514,0.233c-0.347,0.465-0.689,0.963-1.028,1.496c-0.137,0.234-0.183,0.468-0.14,0.701
	c0.075,0.268,0.215,0.469,0.42,0.607c0.234,0.137,0.468,0.168,0.701,0.093c0.268-0.045,0.47-0.185,0.607-0.421
	c0.703-1.131,1.42-2.066,2.15-2.804c0.184-0.181,0.277-0.398,0.279-0.654c-0.002-0.256-0.096-0.474-0.279-0.654
	C202.517,46.428,202.299,46.334,202.043,46.332 M189.19,50.771c-0.28,0.233-0.577,0.482-0.888,0.748h0.047
	c-0.783,0.685-1.484,1.386-2.104,2.104c-0.172,0.195-0.249,0.414-0.233,0.654c0.021,0.27,0.13,0.487,0.327,0.654
	c0.195,0.172,0.414,0.25,0.654,0.233c0.269-0.021,0.486-0.13,0.654-0.327c0.564-0.653,1.203-1.293,1.916-1.916l0,0
	c0.28-0.232,0.545-0.451,0.795-0.654c0.217-0.162,0.342-0.381,0.373-0.654c0.033-0.244-0.029-0.478-0.187-0.701
	c-0.162-0.188-0.38-0.297-0.654-0.327C189.648,50.553,189.414,50.614,189.19,50.771 M192.322,48.622
	c-0.226,0.143-0.382,0.329-0.468,0.562c-0.052,0.268-0.021,0.518,0.093,0.747c0.143,0.226,0.33,0.366,0.562,0.421
	c0.268,0.082,0.517,0.051,0.747-0.094c1.023-0.576,2.083-1.027,3.178-1.355c0.264-0.07,0.451-0.227,0.562-0.467
	c0.138-0.208,0.169-0.441,0.093-0.701c-0.07-0.232-0.227-0.42-0.467-0.561c-0.207-0.106-0.441-0.122-0.701-0.047
	C194.679,47.484,193.479,47.982,192.322,48.622 M195.967,43.621c-1.09-0.81-2.088-1.557-2.991-2.242
	c-0.202-0.158-0.436-0.221-0.7-0.188c-0.244,0.039-0.447,0.164-0.608,0.374c-0.157,0.201-0.22,0.419-0.187,0.654
	c0.039,0.274,0.164,0.493,0.373,0.654c0.904,0.685,1.9,1.433,2.992,2.243c0.21,0.158,0.443,0.221,0.701,0.187
	c0.252-0.04,0.455-0.164,0.607-0.374c0.158-0.21,0.221-0.443,0.187-0.701C196.301,43.977,196.176,43.774,195.967,43.621"/>
</svg>
